<?xml version="1.0" encoding="iso-8859-1"?>
<!-- Generator: Adobe Illustrator 19.0.0, SVG Export Plug-In . SVG Version: 6.00 Build 0)  -->
<svg xmlns="http://www.w3.org/2000/svg" xmlns:xlink="http://www.w3.org/1999/xlink" version="1.1" id="Capa_1" x="0px" y="0px" viewBox="0 0 511.999 511.999" style="enable-background:new 0 0 511.999 511.999;" xml:space="preserve" width="512px" height="512px">
<g>
	<g>
		<rect x="42.667" y="362.669" width="384" height="21.333" fill="#3bc07d"/>
	</g>
</g>
<g>
	<g>
		<path d="M501.333,362.667H480v-256c0-11.782-9.551-21.333-21.333-21.333h-32V64c0-11.782-9.551-21.333-21.333-21.333h-42.667    c-11.782,0-21.333,9.551-21.333,21.333v21.333H170.667V64c0-11.782-9.551-21.333-21.333-21.333h-42.667    c-11.782,0-21.333,9.551-21.333,21.333v21.333h-32C41.551,85.333,32,94.885,32,106.666v256H10.667    C4.776,362.667,0,367.441,0,373.333v32c0,11.782,9.551,21.333,21.333,21.333h469.333c11.782,0,21.333-9.551,21.333-21.333v-32    C512,367.441,507.224,362.667,501.333,362.667z M490.669,405.333h-0.002H21.333V384h21.333c5.891,0,10.667-4.776,10.667-10.667    V106.666H96c5.891,0,10.667-4.776,10.667-10.667V64h42.667v32c0,5.891,4.776,10.667,10.667,10.667h192    c5.891,0,10.667-4.776,10.667-10.667V64h42.667v32c0,5.891,4.776,10.667,10.667,10.667h42.667v266.667    c0,5.891,4.776,10.667,10.667,10.667h21.333V405.333z" fill="#3bc07d"/>
	</g>
</g>
<g>
	<g>
		<rect x="128" y="85.33" width="32" height="21.333" fill="#3bc07d"/>
	</g>
</g>
<g>
	<g>
		<rect x="352" y="85.33" width="32" height="21.333" fill="#3bc07d"/>
	</g>
</g>
<g>
	<g>
		<path d="M469.333,437.333V448H42.667v-10.667H21.333v21.333c0,5.891,4.776,10.667,10.667,10.667h448    c5.891,0,10.667-4.776,10.667-10.667v-21.333H469.333z" fill="#3bc07d"/>
	</g>
</g>
<g>
	<g>
		<rect x="245.33" y="138.669" width="21.333" height="192" fill="#3bc07d"/>
	</g>
</g>
<g>
	<g>
		<rect x="106.67" y="224" width="85.33" height="21.333" fill="#3bc07d"/>
	</g>
</g>
<g>
	<g>
		<rect x="320" y="224" width="85.33" height="21.333" fill="#3bc07d"/>
	</g>
</g>
<g>
	<g>
		<rect x="352" y="192" width="21.333" height="85.33" fill="#3bc07d"/>
	</g>
</g>
<g>
</g>
<g>
</g>
<g>
</g>
<g>
</g>
<g>
</g>
<g>
</g>
<g>
</g>
<g>
</g>
<g>
</g>
<g>
</g>
<g>
</g>
<g>
</g>
<g>
</g>
<g>
</g>
<g>
</g>
</svg>
