<?xml version="1.0" encoding="iso-8859-1"?>
<!-- Generator: Adobe Illustrator 19.0.0, SVG Export Plug-In . SVG Version: 6.00 Build 0)  -->
<svg xmlns="http://www.w3.org/2000/svg" xmlns:xlink="http://www.w3.org/1999/xlink" version="1.1" id="Capa_1" x="0px" y="0px" viewBox="0 0 512 512" style="enable-background:new 0 0 512 512;" xml:space="preserve" width="512px" height="512px">
<g>
	<g>
		<path d="M428,0c-46.318,0-84,37.683-84,84s37.682,84,84,84s84-37.683,84-84S474.318,0,428,0z M428,148c-35.29,0-64-28.71-64-64    s28.71-64,64-64c35.29,0,64,28.71,64,64S463.29,148,428,148z" fill="#3bc07d"/>
	</g>
</g>
<g>
	<g>
		<path d="M316.07,150.93c-1.86-1.86-4.44-2.93-7.07-2.93s-5.21,1.069-7.07,2.93c-1.86,1.86-2.93,4.44-2.93,7.07    s1.07,5.21,2.93,7.069c1.86,1.86,4.44,2.931,7.07,2.931s5.21-1.07,7.07-2.931c1.86-1.859,2.93-4.439,2.93-7.069    S317.93,152.79,316.07,150.93z" fill="#3bc07d"/>
	</g>
</g>
<g>
	<g>
		<path d="M400,197.167c-5.523,0-10,4.478-10,10V252H138v-84h118c5.523,0,10-4.478,10-10c0-5.522-4.477-10-10-10H128    c-5.523,0-10,4.478-10,10v104c0,5.522,4.477,10,10,10h272c5.523,0,10-4.478,10-10v-54.833    C410,201.645,405.523,197.167,400,197.167z" fill="#3bc07d"/>
	</g>
</g>
<g>
	<g>
		<path d="M400,356H288.232c-5.523,0-10,4.478-10,10c0,5.522,4.477,10,10,10H400c5.523,0,10-4.478,10-10    C410,360.478,405.523,356,400,356z" fill="#3bc07d"/>
	</g>
</g>
<g>
	<g>
		<path d="M400,304H288.232c-5.523,0-10,4.478-10,10c0,5.522,4.477,10,10,10H400c5.523,0,10-4.478,10-10    C410,308.478,405.523,304,400,304z" fill="#3bc07d"/>
	</g>
</g>
<g>
	<g>
		<path d="M400,408H288.232c-5.523,0-10,4.478-10,10c0,5.522,4.477,10,10,10H400c5.523,0,10-4.478,10-10    C410,412.478,405.523,408,400,408z" fill="#3bc07d"/>
	</g>
</g>
<g>
	<g>
		<path d="M239.768,304h-55.884c-5.523,0-10,4.478-10,10c0,5.522,4.477,10,10,10h45.884v84H128c-5.523,0-10,4.478-10,10    c0,5.522,4.477,10,10,10h111.768c5.523,0,10-4.478,10-10V314C249.768,308.478,245.291,304,239.768,304z" fill="#3bc07d"/>
	</g>
</g>
<g>
	<g>
		<path d="M448,201.5c-5.523,0-10,4.478-10,10v86.307c0,5.522,4.477,10,10,10s10-4.478,10-10V211.5    C458,205.978,453.523,201.5,448,201.5z" fill="#3bc07d"/>
	</g>
</g>
<g>
	<g>
		<path d="M455.07,330.93c-1.86-1.86-4.44-2.93-7.07-2.93s-5.21,1.069-7.07,2.93c-1.86,1.86-2.93,4.44-2.93,7.07    s1.07,5.21,2.93,7.069c1.86,1.86,4.44,2.931,7.07,2.931s5.21-1.07,7.07-2.931c1.86-1.859,2.93-4.439,2.93-7.069    S456.93,332.79,455.07,330.93z" fill="#3bc07d"/>
	</g>
</g>
<g>
	<g>
		<path d="M448,372.689c-5.523,0-10,4.478-10,10V482c0,5.514-4.486,10-10,10H100c-5.514,0-10-4.486-10-10v-59.107l60.504-47.038    c10.875-8.453,15.902-22.085,13.122-35.575c-2.056-9.979-8.285-18.642-17.089-23.769c-8.804-5.124-19.413-6.267-29.104-3.132    l-40.511,13.106c-5.255,1.7-8.136,7.338-6.437,12.593c1.7,5.255,7.339,8.137,12.593,6.437l40.511-13.106    c4.354-1.408,8.929-0.916,12.884,1.387c3.955,2.303,6.642,6.039,7.565,10.521c1.23,5.972-0.995,12.006-5.809,15.749l-64.367,50.04    C71.425,412,70,414.913,70,418v64v3.136c0,0.807,0.098,1.05,0.279,0.897C72.256,500.674,84.826,512,100,512h328    c16.542,0,30-13.458,30-30v-99.311C458,377.167,453.523,372.689,448,372.689z" fill="#3bc07d"/>
	</g>
</g>
<g>
	<g>
		<path d="M304.333,68H100c-16.542,0-30,13.458-30,30v122.334L1.649,324.073C0.574,325.707,0,327.619,0,329.575V502    c0,5.522,4.477,10,10,10s10-4.478,10-10V332.573l50-75.887v41.121c0,5.522,4.477,10,10,10s10-4.478,10-10V98    c0-5.514,4.486-10,10-10h204.333c5.523,0,10-4.478,10-10C314.333,72.478,309.856,68,304.333,68z" fill="#3bc07d"/>
	</g>
</g>
<g>
	<g>
		<path d="M465.899,60.773c-3.906-3.903-10.237-3.904-14.143,0L426,86.53l-9.343-9.343c-3.905-3.904-10.237-3.904-14.142,0    c-3.905,3.906-3.905,10.237,0,14.143l16.414,16.413c1.953,1.952,4.512,2.929,7.071,2.929s5.119-0.977,7.071-2.929l32.828-32.827    C469.804,71.011,469.805,64.679,465.899,60.773z" fill="#3bc07d"/>
	</g>
</g>
<g>
</g>
<g>
</g>
<g>
</g>
<g>
</g>
<g>
</g>
<g>
</g>
<g>
</g>
<g>
</g>
<g>
</g>
<g>
</g>
<g>
</g>
<g>
</g>
<g>
</g>
<g>
</g>
<g>
</g>
</svg>
