<?xml version="1.0" encoding="iso-8859-1"?>
<svg xmlns="http://www.w3.org/2000/svg" xmlns:xlink="http://www.w3.org/1999/xlink" version="1.1" viewBox="0 0 20.03 20.03" enable-background="new 0 0 20.03 20.03" width="512px" height="512px">
  <g>
    <path d="m19.996,16.123c-0.118-0.793-0.538-1.492-1.182-1.969l-4.268-3.158c0.104-0.311 0.104-1.65 0-1.961l4.268-3.159c0.645-0.477 1.064-1.175 1.183-1.968 0.119-0.793-0.079-1.584-0.555-2.228-0.477-0.644-1.176-1.064-1.968-1.183-0.792-0.118-1.583,0.078-2.228,0.555-0.593,0.439-1.175,1.215-1.516,2.024-0.46,1.088-0.43,2.07 0.085,2.766 0.214,0.289 0.495,0.496 0.811,0.644l-1.501,1.111c-3.026-1.815-7.453-3.644-10.949-3.726-0.195-0.005-0.281,0.252-0.125,0.368l7.807,5.777-4.053,2.999h6.288c0.354-0.192 0.711-0.384 1.036-0.578l1.51,1.117c-0.319,0.148-0.609,0.343-0.825,0.634-1.072,1.449 0.151,3.843 1.431,4.791 0.385,0.284 0.816,0.463 1.258,0.541 1.086,0.191 2.238-0.224 2.937-1.168 0.477-0.645 0.675-1.436 0.556-2.229zm-3.562-13.461c0.127-0.094 0.27-0.155 0.421-0.181 0.105-0.019 0.214-0.02 0.323-0.004 0.264,0.04 0.497,0.18 0.656,0.394 0.159,0.215 0.225,0.479 0.185,0.742-0.04,0.264-0.18,0.497-0.394,0.656-0.66,0.489-1.978,0.617-2.201,0.389-0.158-0.287 0.352-1.509 1.01-1.996zm1.399,14.499c-0.328,0.443-0.954,0.538-1.398,0.209-0.659-0.487-1.168-1.71-1.015-1.991 0.123-0.127 0.565-0.147 1.05-0.062 0.411,0.072 0.852,0.221 1.154,0.445 0.215,0.159 0.355,0.392 0.395,0.656 0.039,0.265-0.027,0.529-0.186,0.743z" fill="#3bc07d"/>
    <path d="m3,16.015h-3v-2h3v2zm4-2h-3v2h3v-2zm4,0h-3v2h3v-2z" fill="#3bc07d"/>
  </g>
</svg>
