<?xml version="1.0"?>
<svg xmlns="http://www.w3.org/2000/svg" height="512px" viewBox="0 -68 448 448" width="512px"><path d="m96 136h80v16h-80zm0 0" fill="#03bc07"/><path d="m268.6875 240h-68.6875c-4.417969 0-8-3.582031-8-8v-40c0-4.417969 3.582031-8 8-8h72v-184h-80v80c0 4.417969-3.582031 8-8 8h-48c-4.417969 0-8-3.582031-8-8v-28.6875l-34.34375 34.34375c-1.5 1.5-3.535156 2.34375-5.65625 2.34375-1.050781.003906-2.09375-.203125-3.0625-.609375-2.988281-1.238281-4.9375-4.15625-4.9375-7.390625v-80h-80v272h236.6875zm-84.6875-72h-96c-4.417969 0-8-3.582031-8-8v-32c0-4.417969 3.582031-8 8-8h96c4.417969 0 8 3.582031 8 8v32c0 4.417969-3.582031 8-8 8zm0 0" fill="#03bc07"/><path d="m360 232c-2.121094 0-4.15625-.84375-5.65625-2.34375l-29.65625-29.65625h-116.6875v24h80c3.234375 0 6.152344 1.949219 7.390625 4.9375s.550781 6.429688-1.734375 8.71875l-48 48c-1.5 1.5-3.535156 2.34375-5.65625 2.34375h-96v24h164.6875l29.65625-29.65625c1.5-1.5 3.535156-2.34375 5.65625-2.34375h104v-48zm0 0" fill="#03bc07"/><path d="m139.0625 24.609375c2.988281 1.238281 4.9375 4.15625 4.9375 7.390625v40h32v-72h-80v60.6875l34.34375-34.34375c2.289062-2.289062 5.730469-2.972656 8.71875-1.734375zm0 0" fill="#03bc07"/></svg>
