<?xml version="1.0" encoding="iso-8859-1"?>
<!-- Generator: Adobe Illustrator 19.0.0, SVG Export Plug-In . SVG Version: 6.00 Build 0)  -->
<svg xmlns="http://www.w3.org/2000/svg" xmlns:xlink="http://www.w3.org/1999/xlink" version="1.1" id="Capa_1" x="0px" y="0px" viewBox="0 0 480.208 480.208" style="enable-background:new 0 0 480.208 480.208;" xml:space="preserve" width="512px" height="512px">
<g>
	<g>
		<path d="M440.104,144.158h-48.205c35.431-26.397,42.754-76.518,16.357-111.948C381.86-3.221,331.739-10.545,296.309,15.852    C260.878,42.249,253.554,92.37,279.951,127.8c4.631,6.216,10.141,11.726,16.357,16.357h-48.205    c-20.908-1.063-38.763,14.93-40,35.828V431.5c-18.521,0.431-39.739,0.615-64,0.646V296.158c0.001-4.417-3.579-7.999-7.996-8    c-0.001,0-0.003,0-0.004,0h-128c-4.417-0.001-7.999,3.579-8,7.996c0,0.001,0,0.003,0,0.004v168c-0.001,4.417,3.579,7.999,7.996,8    c0.001,0,0.003,0,0.004,0h128c4.417,0.001,7.999-3.579,8-7.996c0-0.001,0-0.003,0-0.004v-16.009    c24.057-0.025,45.433-0.178,64.362-0.612c2.956,19.393,20.038,33.452,39.638,32.622h192c20.908,1.063,38.763-14.93,40-35.828    V179.986C478.867,159.087,461.012,143.094,440.104,144.158z M128.104,456.158h-112v-152h112V456.158z M280.104,80.158    c0-35.346,28.654-64,64-64c35.346,0,64,28.654,64,64c0,35.346-28.654,64-64,64C308.775,144.117,280.144,115.487,280.104,80.158z     M464.104,444.33c-1.271,12.039-11.937,20.851-24,19.828h-192c-10.959,0.713-20.883-6.447-23.663-17.071    c103.383-3.621,125.87-18.828,127.549-78.929h56.32c22.105-0.165,39.906-18.191,39.793-40.297v-23.703h-16v23.703    c0.124,13.273-10.52,24.142-23.793,24.297h-24.207v-48h-16v48h-48v-48h-16v48h-16.211c-13.272-0.156-23.913-11.025-23.789-24.297    v-23.703h-16v23.703c-0.114,22.105,17.685,40.131,39.789,40.297h48.143c-0.761,45.715-10.647,59.358-111.932,62.889v-251.06    c1.271-12.039,11.937-20.851,24-19.828h192c12.063-1.023,22.729,7.789,24,19.828V444.33z" fill="#3bc07d"/>
	</g>
</g>
<g>
	<g>
		<path d="M256.104,176.158c-13.255,0-24,10.745-24,24s10.745,24,24,24c13.255,0,24-10.745,24-24    C280.09,186.909,269.353,176.172,256.104,176.158z M256.104,208.158c-4.418,0-8-3.582-8-8s3.582-8,8-8c4.418,0,8,3.582,8,8    C264.1,204.574,260.52,208.153,256.104,208.158z" fill="#3bc07d"/>
	</g>
</g>
<g>
	<g>
		<path d="M256.104,244.158c-13.255,0-24,10.745-24,24c0,13.255,10.745,24,24,24c13.255,0,24-10.745,24-24    C280.09,254.909,269.353,244.172,256.104,244.158z M256.104,276.158c-4.418,0-8-3.582-8-8s3.582-8,8-8c4.418,0,8,3.582,8,8    C264.1,272.574,260.52,276.153,256.104,276.158z" fill="#3bc07d"/>
	</g>
</g>
<g>
	<g>
		<path d="M312.104,176.158c-13.255,0-24,10.745-24,24s10.745,24,24,24s24-10.745,24-24    C336.09,186.909,325.353,176.172,312.104,176.158z M312.104,208.158c-4.418,0-8-3.582-8-8s3.582-8,8-8s8,3.582,8,8    C320.1,204.574,316.52,208.153,312.104,208.158z" fill="#3bc07d"/>
	</g>
</g>
<g>
	<g>
		<path d="M312.104,244.158c-13.255,0-24,10.745-24,24c0,13.255,10.745,24,24,24s24-10.745,24-24    C336.09,254.909,325.353,244.172,312.104,244.158z M312.104,276.158c-4.418,0-8-3.582-8-8s3.582-8,8-8s8,3.582,8,8    C320.1,272.574,316.52,276.153,312.104,276.158z" fill="#3bc07d"/>
	</g>
</g>
<g>
	<g>
		<path d="M376.104,176.158c-13.255,0-24,10.745-24,24s10.745,24,24,24s24-10.745,24-24    C400.09,186.909,389.353,176.172,376.104,176.158z M376.104,208.158c-4.418,0-8-3.582-8-8s3.582-8,8-8s8,3.582,8,8    C384.1,204.574,380.52,208.153,376.104,208.158z" fill="#3bc07d"/>
	</g>
</g>
<g>
	<g>
		<path d="M376.104,244.158c-13.255,0-24,10.745-24,24c0,13.255,10.745,24,24,24s24-10.745,24-24    C400.09,254.909,389.353,244.172,376.104,244.158z M376.104,276.158c-4.418,0-8-3.582-8-8s3.582-8,8-8s8,3.582,8,8    C384.1,272.574,380.52,276.153,376.104,276.158z" fill="#3bc07d"/>
	</g>
</g>
<g>
	<g>
		<path d="M432.104,176.158c-13.255,0-24,10.745-24,24s10.745,24,24,24s24-10.745,24-24    C456.09,186.909,445.353,176.172,432.104,176.158z M432.104,208.158c-4.418,0-8-3.582-8-8s3.582-8,8-8s8,3.582,8,8    C440.1,204.574,436.52,208.153,432.104,208.158z" fill="#3bc07d"/>
	</g>
</g>
<g>
	<g>
		<path d="M432.104,244.158c-13.255,0-24,10.745-24,24c0,13.255,10.745,24,24,24s24-10.745,24-24    C456.09,254.909,445.353,244.172,432.104,244.158z M432.104,276.158c-4.418,0-8-3.582-8-8s3.582-8,8-8s8,3.582,8,8    C440.1,272.574,436.52,276.153,432.104,276.158z" fill="#3bc07d"/>
	</g>
</g>
<g>
	<g>
		<path d="M104.108,312.158c-0.001,0-0.003,0-0.004,0h-64c-4.417-0.001-7.999,3.579-8,7.996c0,0.001,0,0.003,0,0.004v32    c-0.001,4.417,3.579,7.999,7.996,8c0.001,0,0.003,0,0.004,0h64c4.417,0.001,7.999-3.579,8-7.996c0-0.001,0-0.003,0-0.004v-32    C112.105,315.741,108.525,312.159,104.108,312.158z M96.104,344.158h-48v-16h48V344.158z" fill="#3bc07d"/>
	</g>
</g>
<g>
	<g>
		<path d="M84.903,401.759c-1.385-1.04-3.071-1.602-4.803-1.601h-8l14.402-19.203l-12.797-9.594l-24.004,32    c-2.651,3.532-1.937,8.544,1.595,11.196c1.386,1.04,3.071,1.602,4.804,1.601h8l-14.398,19.203l12.805,9.594l23.992-32    C89.149,409.423,88.435,404.41,84.903,401.759z" fill="#3bc07d"/>
	</g>
</g>
<g>
</g>
<g>
</g>
<g>
</g>
<g>
</g>
<g>
</g>
<g>
</g>
<g>
</g>
<g>
</g>
<g>
</g>
<g>
</g>
<g>
</g>
<g>
</g>
<g>
</g>
<g>
</g>
<g>
</g>
</svg>
