<?xml version="1.0" encoding="iso-8859-1"?>
<!-- Generator: Adobe Illustrator 19.0.0, SVG Export Plug-In . SVG Version: 6.00 Build 0)  -->
<svg xmlns="http://www.w3.org/2000/svg" xmlns:xlink="http://www.w3.org/1999/xlink" version="1.1" id="Layer_1" x="0px" y="0px" viewBox="0 0 492.6 492.6" style="enable-background:new 0 0 492.6 492.6;" xml:space="preserve" width="512px" height="512px">
<g>
	<g>
		<path d="M200.2,180.2H80.1c-3.3,0-6,2.7-6,6v120.2c0,3.3,2.7,6,6,6h120.1c3.3,0,6-2.7,6-6V186.2    C206.2,182.9,203.5,180.2,200.2,180.2z M194.2,300.3H86.1V192.2h108.1V300.3z" fill="#3bc07d"/>
	</g>
</g>
<g>
	<g>
		<path d="M412.5,57.9H274.6L302.5,30c2.3-2.3,2.3-6.1,0-8.5c-2.3-2.3-6.1-2.3-8.5,0l-38.1,38.1c-2.3,2.3-2.3,6.1,0,8.5l38.1,38.1    c1.2,1.2,2.7,1.8,4.2,1.8s3.1-0.6,4.2-1.8c2.3-2.3,2.3-6.1,0-8.5l-27.9-27.9h131.9v350.6H206.2v-54.1c0-3.3-2.7-6-6-6H80.1    c-3.3,0-6,2.7-6,6v120.3c0,3.3,2.7,6,6,6h120.1c3.3,0,6-2.7,6-6v-54.1h206.3c3.3,0,6-2.7,6-6V63.9    C418.5,60.6,415.8,57.9,412.5,57.9z M194.2,480.5H86.1V372.4h108.1V480.5z" fill="#3bc07d"/>
	</g>
</g>
<g>
	<g>
		<path d="M200.2,0H80.1c-3.3,0-6,2.7-6,6v120.1c0,3.4,2.7,6.1,6,6.1h120.1c3.3,0,6-2.7,6-6V6C206.2,2.7,203.5,0,200.2,0z     M194.2,120.1H86.1V12h108.1V120.1z" fill="#3bc07d"/>
	</g>
</g>
<g>
</g>
<g>
</g>
<g>
</g>
<g>
</g>
<g>
</g>
<g>
</g>
<g>
</g>
<g>
</g>
<g>
</g>
<g>
</g>
<g>
</g>
<g>
</g>
<g>
</g>
<g>
</g>
<g>
</g>
</svg>
