<?xml version="1.0" encoding="iso-8859-1"?>
<!-- Generator: Adobe Illustrator 16.0.0, SVG Export Plug-In . SVG Version: 6.00 Build 0)  -->
<!DOCTYPE svg PUBLIC "-//W3C//DTD SVG 1.1//EN" "http://www.w3.org/Graphics/SVG/1.1/DTD/svg11.dtd">
<svg xmlns="http://www.w3.org/2000/svg" xmlns:xlink="http://www.w3.org/1999/xlink" version="1.1" id="Capa_1" x="0px" y="0px" width="512px" height="512px" viewBox="0 0 38.692 38.693" style="enable-background:new 0 0 38.692 38.693;" xml:space="preserve">
<g>
	<polygon points="37.02,35.367 37.02,4.128 32.648,1.216 16.992,8.643 16.992,13.886 8.257,16.798 8.257,20.604 1.752,22.419    1.752,35.232 0,35.232 0,37.357 1.752,37.357 1.752,37.367 3.72,37.357 3.743,23.83 14.689,21.169 14.625,37.326 16.189,37.337    16.189,37.357 19.875,37.357 19.875,35.232 18.75,35.232 18.75,22.423 16.083,18.419 10.296,20.035 10.296,18.4 21.655,14.54    21.655,37.328 29.737,37.328 29.737,35.219 28.207,35.219 28.207,14.177 23.768,11.409 19.107,13.012 19.179,10.099 30.537,4.71    30.537,37.476 38.692,37.476 38.692,35.367  " fill="#3bc07d"/>
	<polygon points="23.346,21.246 15.346,21.246 15.346,18.869 23.346,17.446  " fill="#3bc07d"/>
	<polygon points="23.346,19.824 15.346,21.246 15.346,18.868 23.346,17.446  " fill="#3bc07d"/>
	<polygon points="23.346,19.824 15.346,21.246 15.346,18.87 23.346,17.446  " fill="#3bc07d"/>
	<polygon points="23.346,19.824 15.346,21.246 15.346,18.869 23.346,17.446  " fill="#3bc07d"/>
</g>
<g>
</g>
<g>
</g>
<g>
</g>
<g>
</g>
<g>
</g>
<g>
</g>
<g>
</g>
<g>
</g>
<g>
</g>
<g>
</g>
<g>
</g>
<g>
</g>
<g>
</g>
<g>
</g>
<g>
</g>
</svg>
