<?xml version="1.0" encoding="iso-8859-1"?>
<!-- Generator: Adobe Illustrator 19.0.0, SVG Export Plug-In . SVG Version: 6.00 Build 0)  -->
<svg xmlns="http://www.w3.org/2000/svg" xmlns:xlink="http://www.w3.org/1999/xlink" version="1.1" id="Capa_1" x="0px" y="0px" viewBox="0 0 512 512" style="enable-background:new 0 0 512 512;" xml:space="preserve" width="512px" height="512px">
<g>
	<g>
		<path d="M185.985,0l-16.152,25.297l21.325,13.615C96.954,66.993,29.768,154.382,29.768,255.702    c0,43.14,12.192,85.094,35.258,121.324c22.44,35.248,54.102,63.581,91.56,81.933l13.206-26.951    c-32.501-15.923-59.973-40.51-79.448-71.1c-19.994-31.406-30.563-67.785-30.563-105.206c0-87.376,57.597-162.803,138.552-187.601    l-14.161,22.178l25.296,16.152l41.473-64.957L185.985,0z" fill="#3bc07d"/>
	</g>
</g>
<g>
	<g>
		<path d="M482.232,256.298c0-43.14-12.192-85.094-35.258-121.324c-22.44-35.248-54.102-63.581-91.56-81.933l-13.206,26.951    c32.5,15.924,59.973,40.51,79.448,71.1c19.994,31.406,30.563,67.785,30.563,105.206c0,87.377-57.597,162.803-138.552,187.601    l14.161-22.178l-25.297-16.152l-41.473,64.957L326.015,512l16.152-25.297l-21.325-13.615    C415.046,445.007,482.232,357.618,482.232,256.298z" fill="#3bc07d"/>
	</g>
</g>
<g>
	<g>
		<polygon points="367.138,225.334 265.734,225.334 280.868,66.516 144.862,289.43 245.382,289.43 227.668,445.484   " fill="#3bc07d"/>
	</g>
</g>
<g>
</g>
<g>
</g>
<g>
</g>
<g>
</g>
<g>
</g>
<g>
</g>
<g>
</g>
<g>
</g>
<g>
</g>
<g>
</g>
<g>
</g>
<g>
</g>
<g>
</g>
<g>
</g>
<g>
</g>
</svg>
