<?xml version="1.0"?>
<svg xmlns="http://www.w3.org/2000/svg" height="512px" viewBox="0 0 512 512" width="512px"><path d="m80 296c0 5.523438-4.476562 10-10 10s-10-4.476562-10-10 4.476562-10 10-10 10 4.476562 10 10zm0 0" fill="#3bc07d"/><path d="m80 356c0 5.523438-4.476562 10-10 10s-10-4.476562-10-10 4.476562-10 10-10 10 4.476562 10 10zm0 0" fill="#3bc07d"/><path d="m80 416c0 5.523438-4.476562 10-10 10s-10-4.476562-10-10 4.476562-10 10-10 10 4.476562 10 10zm0 0" fill="#3bc07d"/><path d="m30 512h332c16.542969 0 30-13.457031 30-30v-372c0-2.691406-1.105469-5.25-2.929688-7.070312l-100-100c-.0625-.0625-.132812-.117188-.195312-.175782-.171875-.164062-.34375-.328125-.527344-.480468-.078125-.0625-.164062-.121094-.246094-.183594-.175781-.136719-.355468-.273438-.539062-.398438-.066406-.046875-.136719-.082031-.207031-.125-.207031-.132812-.417969-.265625-.636719-.382812-.042969-.023438-.09375-.042969-.140625-.066406-.242187-.128907-.488281-.246094-.742187-.351563-.03125-.015625-.066407-.023437-.09375-.035156-.269532-.109375-.546876-.210938-.828126-.296875-.03125-.007813-.066406-.015625-.101562-.027344-.277344-.078125-.554688-.152344-.84375-.210938-.082031-.015624-.167969-.023437-.253906-.039062-.234375-.039062-.472656-.0820312-.714844-.1054688-.332031-.0351562-.664062-.0507812-1-.0507812h-252c-16.542969 0-30 13.457031-30 30v452c0 16.542969 13.457031 30 30 30zm262-477.855469 65.855469 65.855469h-65.855469zm-272-4.144531c0-5.515625 4.484375-10 10-10h242v90c0 5.523438 4.476562 10 10 10h90v362c0 5.515625-4.484375 10-10 10h-332c-5.515625 0-10-4.484375-10-10zm0 0" fill="#3bc07d"/><path d="m156 240c49.625 0 90-40.375 90-90s-40.375-90-90-90-90 40.375-90 90 40.375 90 90 90zm69.273438-100h-59.273438v-59.273438c30.609375 4.398438 54.875 28.664063 59.273438 59.273438zm-79.273438-59.273438v69.273438c0 5.523438 4.476562 9.988281 10 9.988281h69.273438c-4.867188 33.878907-34.070313 60.011719-69.273438 60.011719-38.597656 0-70-31.402344-70-70 0-35.203125 26.125-64.40625 60-69.273438zm0 0" fill="#3bc07d"/><path d="m100 296c0 5.523438 4.476562 10 10 10h212c5.523438 0 10-4.476562 10-10s-4.476562-10-10-10h-212c-5.523438 0-10 4.476562-10 10zm0 0" fill="#3bc07d"/><path d="m322 346h-212c-5.523438 0-10 4.476562-10 10s4.476562 10 10 10h212c5.523438 0 10-4.476562 10-10s-4.476562-10-10-10zm0 0" fill="#3bc07d"/><path d="m322 406h-212c-5.523438 0-10 4.476562-10 10s4.476562 10 10 10h212c5.523438 0 10-4.476562 10-10s-4.476562-10-10-10zm0 0" fill="#3bc07d"/><path d="m472 0c-22.054688 0-40 17.945312-40 40v382c0 1.058594.222656 2.410156.636719 3.511719l30 80c1.464843 3.902343 5.195312 6.488281 9.363281 6.488281s7.898438-2.585938 9.363281-6.488281l30-80c.414063-1.101563.636719-2.445313.636719-3.511719v-382c0-22.097656-17.898438-40-40-40zm-20 80h40v20h-40zm0 40h40v292h-40zm20-100c11.046875 0 20 8.953125 20 20v20h-40v-20c0-11.027344 8.972656-20 20-20zm0 453.519531-15.570312-41.519531h31.140624zm0 0" fill="#3bc07d"/></svg>
