<?xml version="1.0"?>
<svg xmlns="http://www.w3.org/2000/svg" height="512px" viewBox="0 -14 512.00003 512" width="512px"><path d="m438.855469 91.429688c25.246093 0 45.714843-20.46875 45.714843-45.714844s-20.46875-45.714844-45.714843-45.714844c-25.246094 0-45.714844 20.46875-45.714844 45.714844.03125 25.234375 20.480469 45.683594 45.714844 45.714844zm0 0" fill="#3bc07d"/><path d="m137.140625 283.429688c0 20.195312 16.375 36.570312 36.574219 36.570312 20.195312 0 36.570312-16.375 36.570312-36.570312 0-20.199219-16.375-36.574219-36.570312-36.574219-20.199219 0-36.574219 16.375-36.574219 36.574219zm0 0" fill="#3bc07d"/><path d="m475.425781 384c-15.148437 0-27.429687 12.277344-27.429687 27.425781 0 15.148438 12.28125 27.429688 27.429687 27.429688 15.148438 0 27.429688-12.28125 27.429688-27.429688 0-15.148437-12.28125-27.425781-27.429688-27.425781zm0 0" fill="#3bc07d"/><path d="m0 411.425781h73.144531v54.859375h-73.144531zm0 0" fill="#3bc07d"/><path d="m365.722656 283.4375h18.273438v36.550781h-18.273438zm0 0" fill="#3bc07d"/><path d="m91.429688 402.285156v82.285156h18.285156v-91.429687h-18.285156zm0 0" fill="#3bc07d"/><path d="m475.867188 217.195312c-4.351563-2.5625-5.800782-8.167968-3.238282-12.515624.273438-.464844.589844-.90625.941406-1.316407 16.496094-19.113281 14.371094-47.980469-4.746093-64.476562-19.113281-16.492188-47.980469-14.367188-64.472657 4.746093-4.667968 5.410157-8.003906 11.839844-9.738281 18.769532-.949219 3.71875-4.117187 6.453125-7.9375 6.839844-3.808593.347656-7.441406-1.683594-9.140625-5.109376-15.359375-31.804687-53.589844-45.132812-85.390625-29.773437s-45.132812 53.585937-29.773437 85.390625c3.53125 7.304688 8.417968 13.871094 14.402344 19.351562 3.71875 3.414063 3.964843 9.199219.550781 12.917969-.660157.71875-1.429688 1.328125-2.28125 1.804688-26.460938 14.75-35.953125 48.160156-21.203125 74.625 1.574218 2.824219 3.394531 5.503906 5.441406 8.003906 3.203125 3.90625 2.628906 9.667969-1.273438 12.867187-.789062.644532-1.675781 1.15625-2.628906 1.507813-8.222656 3.070313-15.597656 8.0625-21.503906 14.554687-2.417969 2.632813-6.144531 3.621094-9.546875 2.523438-24.023437-7.757812-49.789063 5.433594-57.546875 29.460938-1.464844 4.542968-2.210938 9.285156-2.210938 14.058593 0 5.050781-4.09375 9.140625-9.140624 9.140625h-27.429688v36.574219h146.285156c26.492188.03125 49.207032-18.90625 53.941406-44.976563.902344-4.964843 5.660157-8.261718 10.628907-7.363281.851562.15625 1.679687.429688 2.457031.820313 7.566406 3.8125 15.925781 5.800781 24.398438 5.804687 28.460937-.144531 52.128906-21.9375 54.621093-50.285156.199219-2.46875 1.398438-4.746094 3.316407-6.308594 1.90625-1.589843 4.386718-2.316406 6.847656-2.011719 2.777344.328126 5.566406.5 8.359375.511719 40.363281.03125 73.113281-32.664062 73.144531-73.03125.019531-25.960937-13.734375-49.988281-36.136719-63.113281v.007812zm-146.726563 75.375h-18.285156v-9.140624h-18.285157v36.570312h18.285157v-9.144531h18.285156v9.144531c0 10.097656-8.1875 18.285156-18.285156 18.285156h-18.285157c-10.097656 0-18.285156-8.1875-18.285156-18.285156v-36.570312c0-10.101563 8.1875-18.289063 18.285156-18.289063h18.285157c10.097656 0 18.285156 8.1875 18.285156 18.289063zm73.144531 27.429688c0 10.097656-8.1875 18.285156-18.289062 18.285156h-18.285156c-10.097657 0-18.285157-8.1875-18.285157-18.285156v-36.570312c0-10.101563 8.1875-18.289063 18.285157-18.289063h18.285156c10.101562 0 18.289062 8.1875 18.289062 18.289063zm73.140625-27.429688v18.285157h-45.714843c-5.046876 0-9.140626-4.09375-9.140626-9.144531 0-2.421876.964844-4.746094 2.679688-6.460938l32-32c3.996094-4.007812 3.996094-10.492188 0-14.5-4.058594-3.875-10.445312-3.875-14.503906 0l-13.714844 13.714844-12.925781-12.929688 13.714843-13.710937c11.144532-11.144531 29.210938-11.144531 40.355469 0 11.144531 11.140625 11.144531 29.210937 0 40.355469l-16.390625 16.390624zm0 0" fill="#3bc07d"/></svg>
