<?xml version="1.0" encoding="iso-8859-1"?>
<!-- Generator: Adobe Illustrator 19.0.0, SVG Export Plug-In . SVG Version: 6.00 Build 0)  -->
<svg xmlns="http://www.w3.org/2000/svg" xmlns:xlink="http://www.w3.org/1999/xlink" version="1.1" id="Capa_1" x="0px" y="0px" viewBox="0 0 480.003 480.003" style="enable-background:new 0 0 480.003 480.003;" xml:space="preserve" width="512px" height="512px">
<g>
	<g>
		<path d="M176.003,0.002c0,17.648-14.352,32-32,32s-32-14.352-32-32h-16c0,26.472,21.528,48,48,48s48-21.528,48-48H176.003z" fill="#3bc07d"/>
	</g>
</g>
<g>
	<g>
		<rect x="200.001" y="44.69" transform="matrix(0.7071 -0.7071 0.7071 0.7071 21.3223 163.4814)" width="16" height="22.624" fill="#3bc07d"/>
	</g>
</g>
<g>
	<g>
		<rect x="68.692" y="47.999" transform="matrix(0.7071 -0.7071 0.7071 0.7071 -16.1648 72.9731)" width="22.624" height="16" fill="#3bc07d"/>
	</g>
</g>
<g>
	<g>
		<path d="M368.003,136.002v16h48v136h-32v-16h8c2.952,0,5.664-1.624,7.056-4.224c1.392-2.6,1.24-5.76-0.4-8.208l-96-144    c-1.488-2.232-3.984-3.568-6.656-3.568h-224c-3.16,0-6.024,1.856-7.312,4.752l-64,144c-1.104,2.48-0.872,5.336,0.6,7.608    c1.472,2.272,4.008,3.64,6.712,3.64h8v200c0,4.424,3.584,8,8,8h352c4.416,0,8-3.576,8-8v-168h32v160h-16v16h48v-16h-16v-160h24    c4.416,0,8-3.576,8-8v-144h16v-16H368.003z M20.315,256.002l56.888-128h206.496l-24.888,56h-14.984l11.616-29.032    c0.984-2.464,0.68-5.256-0.808-7.456c-1.488-2.2-3.976-3.512-6.632-3.512h-40h-40h-40h-40c-3.272,0-6.208,1.992-7.432,5.032    l-16,40l-16,40c-0.984,2.464-0.68,5.256,0.808,7.456c1.488,2.2,3.968,3.512,6.624,3.512h40h40h40h40    c3.272,0,6.208-1.992,7.432-5.032l13.984-34.968h14.272l-24.888,56h-202.8H20.315z M269.203,200.002h18.8v56h-43.688    L269.203,200.002z M83.819,184.002l9.6-24h22.768l-9.6,24H83.819z M100.187,200.002l-9.6,24H67.819l9.6-24H100.187z     M117.419,200.002h22.768l-9.6,24h-22.768L117.419,200.002z M123.819,184.002l9.6-24h22.768l-9.6,24H123.819z M157.419,200.002    h22.768l-9.6,24h-22.768L157.419,200.002z M163.819,184.002l9.6-24h22.768l-9.6,24H163.819z M197.419,200.002h22.768l-9.6,24    h-22.768L197.419,200.002z M203.819,184.002l9.6-24h22.768l-9.6,24H203.819z M368.003,464.002h-336v-192h256v16h-24    c-4.416,0-8,3.576-8,8v24h-8c-4.416,0-8,3.576-8,8v8h-16v-8c0-4.424-3.584-8-8-8h-24v-24c0-4.424-3.584-8-8-8h-96    c-4.416,0-8,3.576-8,8v56h-16c-8.824,0-16,7.176-16,16v32c0,8.824,7.176,16,16,16h16v16h-24v16h64v-16h-24v-16h16    c8.824,0,16-7.176,16-16v-32c0-8.824-7.176-16-16-16h-16v-48h80v16h-24c-4.416,0-8,3.576-8,8v32c0,4.424,3.584,8,8,8h24v72    c0,4.424,3.584,8,8,8h144c4.416,0,8-3.576,8-8v-56h8c4.416,0,8-3.576,8-8v-48c0-4.424-3.584-8-8-8h-8v-16h32V464.002z     M272.003,336.002v64h-16v-64H272.003z M208.003,336.002v16h-48v-16H208.003z M112.003,368.002l0.008,32H64.003v-32H112.003z     M320.003,368.002v-32h16v32H320.003z M368.003,288.002h-40c-4.416,0-8,3.576-8,8v24h-8c-4.416,0-8,3.576-8,8v48    c0,4.424,3.584,8,8,8h8v48h-128v-64h24c4.416,0,8-3.576,8-8v-8h16v56c0,4.424,3.584,8,8,8h32c4.416,0,8-3.576,8-8v-80    c0-4.424-3.584-8-8-8h-8v-16h24c4.416,0,8-3.576,8-8v-24h64V288.002z M376.003,256.002h-72v-64c0-4.424-3.584-8-8-8h-19.688    l21.096-47.472l79.64,119.472H376.003z M448.003,288.002h-16v-136h16V288.002z" fill="#3bc07d"/>
	</g>
</g>
<g>
	<g>
		<polygon points="464.003,104.002 464.003,88.002 448.003,88.002 448.003,104.002 400.003,104.002 400.003,88.002 384.003,88.002     384.003,104.002 368.003,104.002 368.003,120.002 480.003,120.002 480.003,104.002   " fill="#3bc07d"/>
	</g>
</g>
<g>
	<g>
		<rect x="136.003" y="64.002" width="16" height="24" fill="#3bc07d"/>
	</g>
</g>
<g>
	<g>
		<rect x="208.003" y="0.002" width="24" height="16" fill="#3bc07d"/>
	</g>
</g>
<g>
	<g>
		<rect x="56.003" y="0.002" width="24" height="16" fill="#3bc07d"/>
	</g>
</g>
<g>
	<g>
		<path d="M362.659,16.114c-6.992-9.936-19.992-16.112-34.656-16.112s-27.664,6.176-34.656,16.112    c-16.408,1.352-29.344,15.136-29.344,31.888c0,17.648,14.352,32,32,32h64c17.648,0,32-14.352,32-32    C392.003,31.25,379.067,17.466,362.659,16.114z M360.003,64.002h-64c-8.824,0-16-7.176-16-16c0-8.808,7.152-15.968,16-15.968    c0.016,0,0.032,0,0.048,0c0.16,0.016,1.072,0.128,1.24,0.136c3.328,0.264,6.456-1.584,7.856-4.624    c3.136-6.8,12.536-11.544,22.856-11.544s19.72,4.744,22.848,11.536c1.4,3.032,4.544,4.864,7.856,4.624    c0.056,0,1.128-0.128,1.44-0.168c8.76,0.088,15.856,7.232,15.856,16.008C376.003,56.826,368.827,64.002,360.003,64.002z" fill="#3bc07d"/>
	</g>
</g>
<g>
</g>
<g>
</g>
<g>
</g>
<g>
</g>
<g>
</g>
<g>
</g>
<g>
</g>
<g>
</g>
<g>
</g>
<g>
</g>
<g>
</g>
<g>
</g>
<g>
</g>
<g>
</g>
<g>
</g>
</svg>
