<?xml version="1.0" encoding="iso-8859-1"?>
<svg xmlns="http://www.w3.org/2000/svg" xmlns:xlink="http://www.w3.org/1999/xlink" version="1.1" viewBox="0 0 296 296" enable-background="new 0 0 296 296" width="512px" height="512px">
  <g>
    <g>
      <path d="m246.833,69.495l17.334-69.495h-215.334v65.5 210.525l-17,3.975v16h116.329 0.669 114.002v-16l-16-3.779 0-206.726zm-97.978,104.848c4.964,0 9.003,4.037 9.003,9s-4.039,9-9.003,9c-4.961,0-8.997-4.037-8.997-9-0.001-4.963 4.035-9 8.997-9zm13.488-12.034c-3.895-2.506-8.523-3.966-13.488-3.966-4.913,0-9.495,1.431-13.363,3.888l-22.317-34.958c10.209-6.429 22.284-10.161 35.239-10.161 13.274,0 25.625,3.92 35.988,10.643l-22.059,34.554zm-38.459,20.009c-0.014,0.34-0.026,0.681-0.026,1.024 0,9.704 5.56,18.128 13.657,22.268l-19.1,36.777c-21.5-10.944-36.235-33.266-36.235-59.044 0-0.968 0.033-1.928 0.073-2.885l41.631,1.86zm55.624,59.509l-18.914-36.419c7.885-4.211 13.264-12.521 13.264-22.065 0-0.387-0.012-0.771-0.029-1.153l40.742-1.818c0.045,0.987 0.076,1.978 0.076,2.974-0.001,25.337-14.235,47.343-35.139,58.481zm64.466-225.827l-12.206,50h-166.935v-50h179.141z" fill="#3bc07d"/>
    </g>
  </g>
</svg>
